<?xml version="1.0" encoding="utf-8"?>
<!-- Generator: Adobe Illustrator 26.2.1, SVG Export Plug-In . SVG Version: 6.00 Build 0)  -->
<svg version="1.1" id="Ebene_1" xmlns="http://www.w3.org/2000/svg" xmlns:xlink="http://www.w3.org/1999/xlink" x="0px" y="0px"
	 viewBox="0 0 170.1 170.1" style="enable-background:new 0 0 170.1 170.1;" xml:space="preserve">
<style type="text/css">
	.st0{clip-path:url(#SVGID_00000012458309410962979490000004496388346834578331_);}
	.st1{fill:#FFFFFF;}
</style>
<g>
	<g>
		<clipPath id="SVGID_00000178179605348265313290000012952398128556888214_">
			<use xlink:href="#SVGID_1_"  style="overflow:visible;"/>
		</clipPath>
		<polygon style="clip-path:url(#SVGID_00000178179605348265313290000012952398128556888214_);" points="0,0 0,170.1 170.1,170.1 
			170.1,0 0,0 		"/>
	</g>
	<path class="st1" d="M26.6,139.9h13.1v-3.6h-8.2l8.1-14.7v-3.3H27.1v3.6h7.4l-7.9,14.8V139.9L26.6,139.9z M41.4,129.2
		c0,6.6,0.8,11.2,7.3,11.2c6.5,0,7.3-4.7,7.3-11.2c0-6.6-0.8-11.2-7.3-11.2C42.3,117.9,41.4,122.6,41.4,129.2L41.4,129.2z
		 M45.8,129.2c0-5.8,0.4-8,3-8c2.6,0,3,2.2,3,8c0,5.8-0.4,8-3,8C46.2,137.2,45.8,135,45.8,129.2L45.8,129.2z M58.7,139.9h4.4v-9.4
		h7.3V127h-7.3v-5.1h7.7v-3.6H58.7V139.9L58.7,139.9z M77.3,139.9v-21.6h-4.4v21.6H77.3L77.3,139.9z M80.5,118.4v21.6h4v-15.1h0.1
		l5.3,15.1h5v-21.6h-4v14.8h-0.1l-5.3-14.8H80.5L80.5,118.4z M111.6,124.8c0-4.4-1.9-6.8-6.7-6.8c-5.6,0-7.3,3.7-7.3,11
		c0,7.5,1.1,11.5,6.4,11.5c2,0,3.5-0.7,4.5-2.4h0.1v2h3.2v-11.6h-7v3.2h2.9v2.2c0,2.3-1.7,3.4-2.7,3.4c-2.5,0-3-3.3-3-8.5
		c0-5.4,0.8-7.6,3-7.6c1.8,0,2.5,2,2.5,3.6H111.6L111.6,124.8z M114.6,118.4v21.6H127v-3.6h-8v-5.8h7.3V127H119v-5.1h7.7v-3.6H114.6
		L114.6,118.4z M129.2,118.4v21.6h4v-15.1h0.1l5.3,15.1h5v-21.6h-4v14.8h-0.1l-5.3-14.8H129.2L129.2,118.4z"/>
	<path class="st1" d="M26.6,106.6h6.5V92.3h7.6v14.3h6.5V74.4h-6.5v12.3h-7.6V74.4h-6.5V106.6L26.6,106.6z M49.4,106.6h6.8l1.5-6.8
		h8.6l1.5,6.8h6.8L66,74.4h-8L49.4,106.6L49.4,106.6z M61.9,80L61.9,80l3.2,14.5h-6.3L61.9,80L61.9,80z M76.4,74.4v22.5
		c0,8.6,5,10.4,10.3,10.4c5.3,0,10.3-2.2,10.3-10.4V74.4h-6.5v22.5c0,3.2-0.8,5.6-3.8,5.6c-3,0-3.8-2.4-3.8-5.6V74.4H76.4L76.4,74.4
		z M99.8,96.6v1.3c0,6,2.9,9.4,10.3,9.4c7,0,11.2-3.1,11.2-9.9c0-3.9-1.3-6.4-6.1-8.5l-5-2.2c-2.8-1.2-3.3-2.4-3.3-4.4
		c0-1.9,0.8-3.7,3.7-3.7c2.5,0,3.5,1.8,3.5,4.8h6.2v-0.9c0-6.2-4.2-8.7-10-8.7c-6.1,0-10,3.2-10,9.5c0,5.4,2.7,7.8,8.4,9.8
		c4.3,1.5,5.8,2.6,5.8,5.5c0,2.7-1.9,4-3.9,4c-3.4,0-4.3-1.9-4.3-5v-0.9H99.8L99.8,96.6z"/>
	<path class="st1" d="M26.6,30.1v32.2h6.5v-9.6l2.4-3.7l6.6,13.2h7.3l-9.8-18.4l8.8-13.8h-7L33.2,43h-0.1V30.1H26.6L26.6,30.1z
		 M50.4,30.1v22.5c0,8.6,5,10.4,10.3,10.4C66,62.9,71,60.8,71,52.6V30.1h-6.5v22.5c0,3.2-0.8,5.6-3.8,5.6c-3,0-3.8-2.4-3.8-5.6V30.1
		H50.4L50.4,30.1z M75.1,30.1v32.2h6V39.7h0.1l7.9,22.6h7.4V30.1h-6v22.1h-0.1l-7.9-22.1H75.1L75.1,30.1z M99.8,52.2v1.3
		c0,6,2.9,9.4,10.3,9.4c7,0,11.2-3.1,11.2-9.9c0-3.9-1.3-6.4-6.1-8.5l-5-2.2c-2.8-1.2-3.3-2.4-3.3-4.4c0-1.9,0.8-3.7,3.7-3.7
		c2.5,0,3.5,1.8,3.5,4.8h6.2v-0.9c0-6.2-4.2-8.7-10-8.7c-6.1,0-10,3.2-10,9.5c0,5.4,2.7,7.8,8.4,9.8c4.3,1.5,5.8,2.6,5.8,5.5
		c0,2.7-1.9,4-3.9,4c-3.4,0-4.3-1.9-4.3-5v-0.9H99.8L99.8,52.2z M122.8,30.1v5.3h7v26.9h6.5V35.4h7v-5.3H122.8L122.8,30.1z"/>
</g>
</svg>
