<?xml version="1.0" encoding="UTF-8" standalone="no"?>
<svg
   xmlns:dc="http://purl.org/dc/elements/1.1/"
   xmlns:cc="http://creativecommons.org/ns#"
   xmlns:rdf="http://www.w3.org/1999/02/22-rdf-syntax-ns#"
   xmlns:svg="http://www.w3.org/2000/svg"
   xmlns="http://www.w3.org/2000/svg"
   xmlns:sodipodi="http://sodipodi.sourceforge.net/DTD/sodipodi-0.dtd"
   xmlns:inkscape="http://www.inkscape.org/namespaces/inkscape"
   sodipodi:docname="jkon-logo-plain.svg"
   inkscape:version="1.0rc1 (09960d6, 2020-04-09)"
   id="svg8"
   version="1.1"
   viewBox="0 0 20.918232 18.866184"
   height="18.866184mm"
   width="20.918232mm">
  <defs
     id="defs2" />
  <sodipodi:namedview
     fit-margin-bottom="0"
     fit-margin-right="0"
     fit-margin-left="0"
     fit-margin-top="0"
     inkscape:window-maximized="0"
     inkscape:window-y="23"
     inkscape:window-x="0"
     inkscape:window-height="1395"
     inkscape:window-width="2522"
     inkscape:snap-intersection-paths="false"
     showgrid="false"
     inkscape:document-rotation="0"
     inkscape:current-layer="layer1"
     inkscape:document-units="mm"
     inkscape:cy="31.641826"
     inkscape:cx="31.535641"
     inkscape:zoom="3.4438177"
     inkscape:pageshadow="2"
     inkscape:pageopacity="0.0"
     borderopacity="1.0"
     bordercolor="#666666"
     pagecolor="#ffffff"
     id="base" />
  <metadata
     id="metadata5">
    <rdf:RDF>
      <cc:Work
         rdf:about="">
        <dc:format>image/svg+xml</dc:format>
        <dc:type
           rdf:resource="http://purl.org/dc/dcmitype/StillImage" />
        <dc:title></dc:title>
      </cc:Work>
    </rdf:RDF>
  </metadata>
  <g
     transform="translate(-95.584728,-52.566541)"
     id="layer1"
     inkscape:groupmode="layer"
     inkscape:label="Layer 1">
    <g
       style="font-style:normal;font-variant:normal;font-weight:bold;font-stretch:normal;font-size:10.58329999999999949px;line-height:1.25;font-family:'Akkurat Pro';-inkscape-font-specification:'Akkurat Pro, Bold';font-variant-ligatures:normal;font-variant-caps:normal;font-variant-numeric:normal;font-variant-east-asian:normal;fill:#ff625f;fill-opacity:1;stroke:none;stroke-width:0.264583"
       id="text835"
       transform="rotate(-45)"
       aria-label="N">
      <path
         inkscape:connector-curvature="0"
         id="path947"
         style="font-style:normal;font-variant:normal;font-weight:bold;font-stretch:normal;font-size:10.58329999999999949px;font-family:'Akkurat Pro';-inkscape-font-specification:'Akkurat Pro, Bold';font-variant-ligatures:normal;font-variant-caps:normal;font-variant-numeric:normal;font-variant-east-asian:normal;fill:#ff625f;fill-opacity:1;stroke-width:0.264583"
         d="m 30.72958,117.95193 v -7.50356 h -1.344079 v 5.07998 l -3.20674,-5.07998 h -1.449912 v 7.50356 h 1.344079 v -5.15407 l 3.249073,5.15407 z" />
    </g>
    <g
       style="font-style:normal;font-variant:normal;font-weight:bold;font-stretch:normal;font-size:10.58329999999999949px;line-height:1.25;font-family:'Akkurat Pro';-inkscape-font-specification:'Akkurat Pro, Bold';font-variant-ligatures:normal;font-variant-caps:normal;font-variant-numeric:normal;font-variant-east-asian:normal;fill:#ff625f;fill-opacity:1;stroke:none;stroke-width:0.264583"
       id="text835-2"
       transform="rotate(-135)"
       aria-label="O">
      <path
         inkscape:connector-curvature="0"
         id="path944"
         style="font-style:normal;font-variant:normal;font-weight:bold;font-stretch:normal;font-size:10.58329999999999949px;font-family:'Akkurat Pro';-inkscape-font-specification:'Akkurat Pro, Bold';font-variant-ligatures:normal;font-variant-caps:normal;font-variant-numeric:normal;font-variant-east-asian:normal;fill:#ff625f;fill-opacity:1;stroke-width:0.264583"
         d="m -119.53454,26.831881 c 0,-1.227663 -0.13758,-2.233076 -0.9525,-3.04799 -0.5715,-0.571498 -1.35466,-0.846664 -2.15899,-0.846664 -0.80433,0 -1.5875,0.275166 -2.15899,0.846664 -0.81492,0.814914 -0.9525,1.820327 -0.9525,3.04799 0,1.227663 0.13758,2.222493 0.9525,3.037407 0.57149,0.571498 1.35466,0.846664 2.15899,0.846664 0.80433,0 1.58749,-0.275166 2.15899,-0.846664 0.81492,-0.814914 0.9525,-1.809744 0.9525,-3.037407 z m -1.38641,0 c 0,0.687915 -0.0212,1.608662 -0.53975,2.14841 -0.29633,0.317499 -0.75141,0.497415 -1.18533,0.497415 -0.43392,0 -0.889,-0.179916 -1.18533,-0.497415 -0.51858,-0.539748 -0.53975,-1.460495 -0.53975,-2.14841 0,-0.687914 0.0212,-1.619245 0.53975,-2.158993 0.29633,-0.317499 0.75141,-0.497415 1.18533,-0.497415 0.43392,0 0.889,0.179916 1.18533,0.497415 0.51858,0.539748 0.53975,1.471079 0.53975,2.158993 z" />
    </g>
    <g
       style="font-style:normal;font-variant:normal;font-weight:bold;font-stretch:normal;font-size:10.58329999999999949px;line-height:1.25;font-family:'Akkurat Pro';-inkscape-font-specification:'Akkurat Pro, Bold';font-variant-ligatures:normal;font-variant-caps:normal;font-variant-numeric:normal;font-variant-east-asian:normal;fill:#ff625f;fill-opacity:1;stroke:none;stroke-width:0.264583"
       id="text835-3"
       transform="rotate(135)"
       aria-label="K">
      <path
         inkscape:connector-curvature="0"
         id="path941"
         style="font-style:normal;font-variant:normal;font-weight:bold;font-stretch:normal;font-size:10.58329999999999949px;font-family:'Akkurat Pro';-inkscape-font-specification:'Akkurat Pro, Bold';font-variant-ligatures:normal;font-variant-caps:normal;font-variant-numeric:normal;font-variant-east-asian:normal;fill:#ff625f;fill-opacity:1;stroke-width:0.264583"
         d="m -32.440894,-118.51855 -2.688158,-4.66723 2.412992,-2.83633 h -1.661578 l -2.995074,3.46074 v -3.46074 h -1.365245 v 7.50356 h 1.365245 v -2.03199 l 1.291163,-1.51341 2.031993,3.5454 z" />
    </g>
    <g
       style="font-style:normal;font-variant:normal;font-weight:bold;font-stretch:normal;font-size:10.58329999999999949px;line-height:1.25;font-family:'Akkurat Pro';-inkscape-font-specification:'Akkurat Pro, Bold';font-variant-ligatures:normal;font-variant-caps:normal;font-variant-numeric:normal;font-variant-east-asian:normal;fill:#ff625f;fill-opacity:1;stroke:none;stroke-width:0.264583"
       id="text835-0"
       transform="rotate(45)"
       aria-label="J">
      <path
         inkscape:connector-curvature="0"
         id="path938"
         style="font-style:normal;font-variant:normal;font-weight:bold;font-stretch:normal;font-size:10.58329999999999949px;font-family:'Akkurat Pro';-inkscape-font-specification:'Akkurat Pro, Bold';font-variant-ligatures:normal;font-variant-caps:normal;font-variant-numeric:normal;font-variant-east-asian:normal;fill:#ff625f;fill-opacity:1;stroke-width:0.264583"
         d="m 116.25956,-35.241189 v -5.312816 h -1.36524 v 5.418649 c 0,0.613832 -0.29633,1.015997 -0.91017,1.015997 -0.27516,0 -0.50799,-0.116416 -0.65616,-0.275166 -0.23283,-0.253999 -0.27517,-0.634998 -0.27517,-1.005413 h -1.32291 c 0,0.814914 0.21167,1.428745 0.65617,1.883827 0.37041,0.380999 0.88899,0.613832 1.59807,0.613832 1.43933,0 2.27541,-0.920747 2.27541,-2.33891 z" />
    </g>
  </g>
</svg>
